<svg xmlns="http://www.w3.org/2000/svg" id="Layer_1" data-name="Layer 1" viewBox="0 0 1000 1000"><defs><style>      .cls-1 {        fill: #ef7b7b;      }    </style></defs><rect class="cls-1" width="1004.66" height="1004.66"></rect><g><path d="M189.36,628c3.04,0,7.23.48,12.55,1.43,5.32.95,10.74,2.19,16.26,3.71,5.51,1.52,10.65,3.33,15.41,5.42,4.75,2.09,7.99,4.28,9.7,6.56,6.46.57,12.65,2.23,18.55,4.99,5.89,2.76,11.03,6.61,15.41,11.56,4.57-4.95,10.37-8.85,17.41-11.7,7.04-2.85,13.88-4.28,20.54-4.28h3.71v-135.25c0-1.33-.48-3.33-1.43-5.99-.95-2.66-1.62-4.57-2-5.71-2.28-5.32-5.33-9.75-9.13-13.27-3.81-3.52-8.04-6.37-12.7-8.56-4.66-2.18-9.66-3.75-14.98-4.71-5.33-.95-10.66-1.43-15.98-1.43-9.32,0-18.12,1.28-26.39,3.85s-15.51,6.38-21.69,11.41c-6.18,5.04-11.08,11.27-14.69,18.69-3.62,7.42-5.42,16.08-5.42,25.96,0,3.81.38,7.61,1.14,11.41.76,3.81,2.04,7.18,3.85,10.13,1.81,2.95,4.23,5.33,7.28,7.13,3.04,1.81,6.85,2.71,11.41,2.71h1.43c4.56-2.66,9.46-4.52,14.69-5.56,5.23-1.04,10.6-1.57,16.12-1.57,5.89,0,11.6.71,17.12,2.14,5.51,1.43,10.41,3.71,14.69,6.85s7.7,7.09,10.27,11.84c2.57,4.76,3.85,10.37,3.85,16.83,0,7.23-1.28,13.32-3.85,18.26-2.57,4.95-6.04,8.99-10.41,12.13-4.38,3.14-9.46,5.38-15.26,6.71-5.8,1.33-11.94,2-18.4,2-5.71,0-11.41-.71-17.12-2.14-5.71-1.43-10.84-3.61-15.41-6.56-4.57-2.95-8.27-6.75-11.13-11.41-2.85-4.66-4.28-10.32-4.28-16.98s1.52-12.74,4.57-18.26c-4.95-1.52-9.13-3.85-12.55-6.99s-6.18-6.8-8.27-10.98c-2.1-4.18-3.62-8.65-4.57-13.41-.95-4.75-1.43-9.51-1.43-14.27,0-12.17,2.23-23.01,6.71-32.53,4.47-9.51,10.56-17.5,18.26-23.97,7.7-6.46,16.69-11.36,26.96-14.69,10.27-3.33,21.11-4.99,32.53-4.99,10.27,0,20.35,1.52,30.25,4.57,9.89,3.04,18.55,8.27,25.96,15.69v-14.84h16.83v191.17c7.04,4.75,10.56,11.22,10.56,19.4,0,4.75-1,8.89-3,12.41-2,3.52-4.56,6.46-7.7,8.85-3.14,2.38-6.75,4.14-10.84,5.28-4.09,1.14-8.23,1.71-12.41,1.71-6.28,0-12.7-1.33-19.26-3.99-6.56-2.67-11.84-6.47-15.84-11.41-4,4.94-9.27,8.75-15.84,11.41-6.56,2.66-12.98,3.99-19.26,3.99-4.19,0-8.32-.57-12.41-1.71-4.09-1.14-7.7-2.9-10.84-5.28-3.14-2.38-5.71-5.33-7.7-8.85-2-3.52-3-7.66-3-12.41,0-8.94,3.99-15.79,11.98-20.54-4.38-1.52-9.37-3-14.98-4.42-5.61-1.43-10.89-2.14-15.84-2.14v-15.41ZM216.75,594.33c0,4.19,1.04,7.61,3.14,10.27,2.09,2.67,4.71,4.81,7.85,6.42,3.14,1.62,6.56,2.76,10.27,3.42,3.71.67,7.18,1,10.41,1,4.18,0,8.18-.29,11.98-.86,3.8-.57,7.18-1.71,10.13-3.42,2.95-1.71,5.28-4.04,6.99-6.99,1.71-2.95,2.57-6.8,2.57-11.56,0-4.18-.91-7.65-2.71-10.41-1.81-2.76-4.14-4.94-6.99-6.56-2.85-1.61-6.04-2.76-9.56-3.42-3.52-.66-6.99-1-10.42-1-3.81,0-7.66.38-11.56,1.14-3.9.76-7.52,2-10.84,3.71-3.33,1.71-6.04,4.04-8.13,6.99-2.1,2.95-3.14,6.71-3.14,11.27ZM223.6,670.8c0,2.28.62,4.23,1.85,5.85,1.24,1.61,2.75,2.95,4.57,3.99,1.81,1.04,3.8,1.76,5.99,2.14,2.18.38,4.32.57,6.42.57,3.8,0,8.18-.95,13.12-2.85,4.94-1.9,8.46-4.57,10.56-7.99-3.04-3.81-7.04-6.8-11.98-8.99-4.95-2.19-9.8-3.28-14.55-3.28-1.71,0-3.47.19-5.28.57-1.81.38-3.52.95-5.14,1.71-1.62.76-2.95,1.85-3.99,3.28-1.05,1.43-1.57,3.09-1.57,4.99ZM288.37,672.51c2.09,3.42,5.61,6.09,10.56,7.99,4.94,1.9,9.42,2.85,13.41,2.85,1.9,0,3.95-.19,6.13-.57,2.18-.38,4.18-1.1,5.99-2.14,1.81-1.05,3.33-2.38,4.57-3.99,1.23-1.62,1.85-3.57,1.85-5.85,0-1.9-.53-3.47-1.57-4.71-1.05-1.24-2.38-2.24-4-3-1.62-.76-3.33-1.28-5.14-1.57-1.81-.29-3.47-.43-4.99-.43-4.76,0-9.61,1-14.55,3-4.95,2-9.04,4.8-12.27,8.42Z"></path><path d="M504.07,619.72c-7.61,7.61-16.41,13.22-26.39,16.83s-20.21,5.42-30.67,5.42c-7.04,0-14.17-.95-21.4-2.85-7.23-1.9-13.75-4.8-19.54-8.7-5.8-3.9-10.56-8.85-14.27-14.84s-5.56-12.98-5.56-20.97c0-5.51,1-10.7,3-15.55,2-4.85,5.09-8.99,9.27-12.41-9.13-3.8-16.36-9.79-21.68-17.98-5.33-8.18-7.99-17.21-7.99-27.11,0-10.84,2.18-20.69,6.56-29.53,4.37-8.84,10.27-16.36,17.69-22.54,7.42-6.18,15.88-10.99,25.39-14.41,9.51-3.42,19.4-5.14,29.67-5.14,11.22,0,21.68,2.67,31.39,7.99,9.7,5.33,17.88,12.37,24.54,21.11v-6.28h17.41v169.2h-17.41v-22.26ZM470.69,569.22c-3.04-.19-6.9-.38-11.56-.57-4.66-.19-9.51-.14-14.55.14-5.04.29-10.08.9-15.12,1.85-5.04.95-9.56,2.38-13.55,4.28-4,1.9-7.23,4.47-9.7,7.7-2.47,3.24-3.71,7.23-3.71,11.98,0,5.71,1.43,10.51,4.28,14.41,2.85,3.9,6.46,7.09,10.84,9.56,4.37,2.47,9.17,4.28,14.41,5.42,5.23,1.14,10.22,1.71,14.98,1.71,5.14,0,10.27-.57,15.41-1.71,5.14-1.14,10.08-2.8,14.84-4.99,4.75-2.18,9.13-4.99,13.12-8.42,3.99-3.42,7.32-7.42,9.99-11.98.38-.95,1.09-2.43,2.14-4.42,1.04-2,1.57-3.47,1.57-4.42v-72.47c0-1.52-.48-3.66-1.43-6.42-.95-2.76-1.81-4.9-2.57-6.42-2.28-5.14-5.14-10.03-8.56-14.69-3.42-4.66-7.37-8.75-11.84-12.27-4.47-3.52-9.37-6.28-14.69-8.27-5.33-2-10.94-3-16.83-3-7.99,0-15.79,1.28-23.4,3.85-7.61,2.57-14.32,6.23-20.12,10.99-5.8,4.76-10.51,10.56-14.12,17.4-3.62,6.85-5.42,14.55-5.42,23.11,0,5.52,1,10.37,3,14.55,2,4.19,4.71,7.66,8.13,10.41,3.42,2.76,7.42,4.81,11.98,6.13,4.57,1.33,9.42,2,14.55,2,5.51,0,10.99-.38,16.41-1.14,5.42-.76,10.89-1.14,16.41-1.14,2.66,0,5.32.05,7.99.14,2.66.1,5.32.24,7.99.43l-.86,16.26Z"></path><path d="M554.58,451.67h17.41v190.31h-17.41v-190.31Z"></path><path d="M671.56,611.16c-5.52,2.85-11.41,4.28-17.69,4.28-9.32,0-17.26-2.8-23.83-8.42-6.56-5.61-9.84-13.27-9.84-22.97,0-4.75,1.04-9.42,3.14-13.98-9.13-3.23-15.55-8.7-19.26-16.41-3.71-7.7-5.56-16.12-5.56-25.25,0-11.98,2.47-22.83,7.42-32.53,4.94-9.7,11.56-17.98,19.83-24.82,8.28-6.85,17.69-12.08,28.25-15.69,10.56-3.61,21.44-5.42,32.67-5.42s22.4,2.19,32.38,6.56c9.99,4.38,18.69,10.37,26.11,17.98,7.42,7.61,13.22,16.5,17.4,26.68,4.18,10.18,6.28,20.97,6.28,32.38,0,9.7-.71,19.4-2.14,29.1s-4.52,18.93-9.27,27.68l-14.27-7.7c3.99-7.42,6.56-15.36,7.7-23.83,1.14-8.46,1.71-16.88,1.71-25.25,0-9.32-1.67-18.07-4.99-26.25-3.33-8.18-7.94-15.31-13.84-21.4-5.9-6.09-12.89-10.89-20.97-14.41-8.09-3.52-16.79-5.28-26.11-5.28s-17.74,1.43-26.39,4.29c-8.66,2.86-16.36,6.97-23.11,12.31-6.75,5.35-12.17,11.88-16.26,19.61-4.09,7.73-6.13,16.46-6.13,26.19,0,8.02,1.61,14.51,4.85,19.46,3.23,4.96,9.13,7.82,17.69,8.58,5.14-2.28,10.65-3.42,16.55-3.42,4.37,0,8.8.76,13.27,2.28,4.47,1.52,8.32,3.9,11.56,7.13,2.85-3.61,6.37-6.09,10.56-7.42,4.18-1.33,8.46-2,12.84-2,6.66,0,11.98,1,15.98,2.99,4,1.99,7.08,4.79,9.27,8.39,2.18,3.6,3.61,7.82,4.28,12.66.67,4.83,1,10.09,1,15.78v48.92h-16.26v-57.92c0-2.85-.38-5.37-1.14-7.56-.76-2.18-2.14-3.95-4.14-5.28-2-1.33-4.99-2-8.99-2-3.62,0-6.42.57-8.42,1.71-2,1.14-3.42,2.71-4.28,4.71-.86,2-1.33,4.28-1.43,6.85-.1,2.57-.14,5.28-.14,8.13v51.36h-16.26v-30.82ZM637.61,584.06c0,4.76,1.58,8.18,4.75,10.27,3.17,2.1,6.96,3.14,11.37,3.14s8.16-1.04,11.23-3.14c3.07-2.09,4.61-5.51,4.61-10.27s-1.54-8.18-4.61-10.27c-3.07-2.09-6.82-3.14-11.23-3.14s-8.21,1.1-11.37,3.28c-3.17,2.19-4.75,5.56-4.75,10.13Z"></path><path d="M825.07,595.47c0-2.28.09-4.61.29-6.99.19-2.38.66-4.71,1.43-6.99-5.52-1.33-10.18-3.66-13.98-6.99-3.81-3.33-6.85-7.23-9.13-11.7-2.28-4.47-3.95-9.32-4.99-14.55-1.05-5.23-1.57-10.41-1.57-15.55,0-12.55,2.47-23.92,7.43-34.1,4.95-10.17,11.57-18.92,19.86-26.25,8.29-7.32,17.91-12.93,28.86-16.83,10.95-3.9,22.43-5.85,34.44-5.85,13.91,0,26.53,2.52,37.86,7.56,11.33,5.04,21.05,11.98,29.15,20.83,8.1,8.85,14.33,19.17,18.72,30.96,4.38,11.8,6.58,24.44,6.58,37.95,0,9.32-1.31,18.4-3.92,27.25-2.61,8.85-6.54,17.26-11.76,25.25l-13.42-8.56c8.56-13.5,12.84-28.15,12.84-43.94,0-11.22-1.81-21.73-5.42-31.53-3.62-9.79-8.7-18.35-15.27-25.68-6.56-7.32-14.55-13.13-23.97-17.41-9.42-4.28-19.93-6.42-31.53-6.42-9.7,0-19.02,1.57-27.96,4.71-8.94,3.14-16.83,7.56-23.68,13.27-6.85,5.71-12.32,12.65-16.41,20.83-4.09,8.18-6.13,17.4-6.13,27.68,0,3.62.33,7.42,1,11.41.67,3.99,1.85,7.7,3.57,11.13,1.71,3.42,4.04,6.23,6.99,8.42,2.95,2.19,6.71,3.28,11.27,3.28,2.09,0,5.14-.66,9.13-2,4-1.33,8.08-2,12.27-2s8.46.43,12.84,1.28c4.37.86,8.18,2.71,11.41,5.56,2.85-3.23,6.61-5.42,11.27-6.56,4.66-1.14,9.08-1.71,13.27-1.71,6.46,0,11.79.81,15.98,2.42,4.18,1.61,7.51,3.94,9.99,6.97,2.47,3.03,4.18,6.87,5.14,11.52.95,4.65,1.43,9.9,1.43,15.78v44.07h-16.26v-44.23c0-3.61-.1-6.71-.29-9.27-.19-2.57-.76-4.71-1.71-6.42-.95-1.71-2.52-2.95-4.71-3.71-2.19-.76-5.38-1.14-9.56-1.14-3.62,0-6.47.33-8.56,1-2.1.67-3.71,1.71-4.85,3.14-1.14,1.43-1.9,3.33-2.28,5.71-.38,2.38-.57,5.19-.57,8.42v46.51h-16.26v-44.23c0-3.61-.1-6.66-.29-9.13-.19-2.47-.76-4.47-1.71-5.99-.95-1.52-2.57-2.57-4.85-3.14-2.28-.57-5.42-.86-9.42-.86-3.42,0-6.23.24-8.42.71-2.19.48-3.85,1.38-4.99,2.71-1.14,1.33-1.9,3.04-2.28,5.14-.38,2.1-.57,4.85-.57,8.27v46.51h-16.26v-46.51Z"></path><path d="M470.41,902.2v17.98H165.39v-17.98h305.01Z"></path><path d="M694.96,902.2v17.98h-305.01v-17.98h305.01Z"></path><path d="M706.94,970.1c7.23-4.75,15.02-9.89,23.4-15.41,8.37-5.52,16.45-11.36,24.25-17.55,7.8-6.18,14.98-12.84,21.54-19.97,6.56-7.13,11.74-14.88,15.55-23.25-8.56-.57-16.88-1.66-24.97-3.28-8.09-1.61-15.22-4.32-21.4-8.13-6.18-3.8-11.13-8.99-14.84-15.55s-5.56-14.98-5.56-25.25c0-6.28.95-12.36,2.85-18.26,1.9-5.89,4.71-11.03,8.42-15.41,3.71-4.37,8.23-7.89,13.55-10.56,5.32-2.66,11.41-3.99,18.26-3.99,8.37,0,15.64,1.85,21.83,5.56,6.18,3.71,11.27,8.52,15.26,14.41,3.99,5.9,6.99,12.55,8.99,19.97,2,7.42,3,14.84,3,22.26,0,16.74-2.95,31.34-8.84,43.8-5.9,12.46-13.6,23.64-23.11,33.53-9.51,9.89-20.26,18.93-32.24,27.11-11.98,8.18-24.07,16.36-36.24,24.54l-9.7-14.55ZM742.32,841.86c0,7.95,1.71,14.16,5.14,18.61,3.42,4.45,7.8,7.81,13.12,10.08,5.32,2.27,11.22,3.79,17.69,4.54,6.46.76,12.74,1.24,18.83,1.42,1.71-6.82,2.57-13.92,2.57-21.31,0-4.73-.57-9.71-1.71-14.91-1.14-5.21-2.95-9.99-5.42-14.35-2.47-4.36-5.75-7.95-9.84-10.8-4.09-2.84-8.99-4.26-14.69-4.26-4.38,0-8.13.9-11.27,2.7-3.14,1.8-5.8,4.12-7.99,6.96-2.19,2.84-3.81,6.11-4.85,9.8-1.05,3.7-1.57,7.53-1.57,11.51Z"></path><path d="M888.27,899.34c-6.68,0-12.74-1.38-18.18-4.15-5.44-2.76-10.12-6.44-14.03-11.02-3.91-4.58-6.97-9.83-9.16-15.74-2.19-5.91-3.29-12.02-3.29-18.31s1.1-12.4,3.29-18.31c2.19-5.91,5.25-11.16,9.16-15.74,3.91-4.58,8.59-8.25,14.03-11.02,5.44-2.76,11.5-4.15,18.18-4.15s12.5,1.39,18.03,4.15c5.53,2.76,10.25,6.44,14.17,11.02,3.91,4.58,6.96,9.83,9.16,15.74,2.19,5.92,3.29,12.02,3.29,18.31s-1.1,12.4-3.29,18.31c-2.19,5.92-5.25,11.16-9.16,15.74-3.91,4.58-8.64,8.25-14.17,11.02-5.54,2.76-11.55,4.15-18.03,4.15ZM861.02,850.12c0,3.79.62,7.58,1.85,11.36,1.23,3.79,3.03,7.2,5.39,10.23,2.36,3.03,5.25,5.49,8.66,7.38,3.41,1.89,7.19,2.84,11.36,2.84s7.95-.95,11.36-2.84c3.41-1.89,6.29-4.35,8.65-7.38,2.36-3.03,4.16-6.44,5.39-10.23,1.23-3.79,1.85-7.57,1.85-11.36s-.62-7.57-1.85-11.36c-1.23-3.79-3.03-7.2-5.39-10.23-2.36-3.03-5.25-5.49-8.65-7.39-3.41-1.89-7.19-2.84-11.36-2.84s-7.95.95-11.36,2.84c-3.41,1.89-6.29,4.36-8.66,7.39-2.36,3.03-4.16,6.44-5.39,10.23-1.23,3.79-1.85,7.57-1.85,11.36Z"></path></g></svg>